<?xml version="1.0" encoding="UTF-8"?>
<svg width="26px" height="32px" viewBox="0 0 26 32" version="1.1" xmlns="http://www.w3.org/2000/svg" xmlns:xlink="http://www.w3.org/1999/xlink">
    <!-- Generator: Sketch 55 (78076) - https://sketchapp.com -->
    <title>Wizard</title>
    <desc>Created with Sketch.</desc>
    <g id="Page-1" stroke="none" stroke-width="1" fill="none" fill-rule="evenodd">
        <g id="Artboard" transform="translate(-3.000000, 0.000000)">
            <g id="Wizard" transform="translate(3.000000, 0.000000)">
                <g id="Staff" transform="translate(1.032258, 2.064516)">
                    <g id="Staff-highlight" fill="#AD8E62">
                        <rect id="Rectangle" x="0" y="3.09677419" width="1.03225806" height="1.03225806"></rect>
                        <rect id="Rectangle" x="0" y="2.06451613" width="1.03225806" height="1.03225806"></rect>
                        <rect id="Rectangle" x="1.03225806" y="1.03225806" width="1.03225806" height="1.03225806"></rect>
                        <rect id="Rectangle" x="2.06451613" y="0" width="1.03225806" height="1.03225806"></rect>
                    </g>
                    <g id="Staff-fill" transform="translate(1.032258, 1.032258)" fill="#8F4300">
                        <rect id="Rectangle" x="1.03225806" y="12.3870968" width="1.03225806" height="3.09677419"></rect>
                        <polygon id="Rectangle" points="1.03225806 5.16129032 2.06451613 5.16129032 2.06451613 9.29032258 1.03225806 9.29032258 1.03225806 6.19354839 -2.84217094e-14 6.19354839 -1.80214266e-14 1.03225806 1.03225806 1.03225806 1.03225806 3.02983445e-15 3.09677419 0 3.09677419 1.03225806 2.06451613 1.03225806 2.06451613 2.06451613 3.09677419 2.06451613 3.09677419 5.16129032"></polygon>
                        <rect id="Rectangle" x="1.03225806" y="21.6774194" width="1.03225806" height="4.12903226"></rect>
                        <rect id="Rectangle" x="0" y="15.483871" width="1.03225806" height="6.19354839"></rect>
                    </g>
                </g>
                <g id="Fill" transform="translate(4.129032, 1.032258)">
                    <g id="Wizard-Fill" transform="translate(2.064516, 0.000000)" fill="#FFDB68">
                        <polygon id="Rectangle" points="9.29032258 6.19354839 9.29032258 7.22580645 11.3548387 7.22580645 13.4193548 7.22580645 13.4193548 6.19354839 11.3548387 6.19354839 11.3548387 5.16129032 8.25806452 5.16129032 8.25806452 4.12903226 2.06451613 4.12903226 2.06451613 5.16129032 5.16129032 5.16129032 5.16129032 6.19354839"></polygon>
                        <polygon id="Rectangle" points="5.16129032 22.7096774 7.22580645 22.7096774 7.22580645 23.7419355 6.19354839 23.7419355 6.19354839 24.7741935 5.16129032 24.7741935 5.16129032 23.7419355"></polygon>
                        <polygon id="Rectangle" points="7.22580645 13.4193548 8.25806452 13.4193548 8.25806452 11.3548387 9.29032258 11.3548387 9.29032258 10.3225806 10.3225806 10.3225806 10.3225806 9.29032258 14.4516129 9.29032258 14.4516129 11.3548387 16.516129 11.3548387 16.516129 12.3870968 17.5483871 12.3870968 17.5483871 14.4516129 18.5806452 14.4516129 18.5806452 18.5806452 17.5483871 18.5806452 17.5483871 21.6774194 16.516129 21.6774194 16.516129 22.7096774 15.483871 22.7096774 15.483871 23.7419355 14.4516129 23.7419355 14.4516129 22.7096774 13.4193548 22.7096774 13.4193548 20.6451613 12.3870968 20.6451613 12.3870968 18.5806452 11.3548387 18.5806452 11.3548387 17.5483871 10.3225806 17.5483871 10.3225806 13.4193548 9.29032258 13.4193548 9.29032258 17.5483871 10.3225806 17.5483871 10.3225806 19.6129032 11.3548387 19.6129032 11.3548387 20.6451613 12.3870968 20.6451613 12.3870968 22.7096774 13.4193548 22.7096774 13.4193548 26.8387097 14.4516129 26.8387097 14.4516129 28.9032258 15.483871 28.9032258 15.483871 29.9354839 14.4516129 29.9354839 14.4516129 28.9032258 13.4193548 28.9032258 13.4193548 27.8709677 12.3870968 27.8709677 12.3870968 26.8387097 11.3548387 26.8387097 11.3548387 24.7741935 10.3225806 24.7741935 10.3225806 26.8387097 11.3548387 26.8387097 11.3548387 28.9032258 12.3870968 28.9032258 12.3870968 29.9354839 10.3225806 29.9354839 10.3225806 27.8709677 9.29032258 27.8709677 9.29032258 23.7419355 8.25806452 23.7419355 8.25806452 17.5483871 7.22580645 17.5483871"></polygon>
                        <polygon id="Rectangle" points="1.03225806 11.3548387 2.06451613 11.3548387 3.09677419 11.3548387 3.09677419 15.483871 2.06451613 15.483871 2.06451613 21.6774194 1.03225806 21.6774194"></polygon>
                        <rect id="Rectangle" x="4.12903226" y="10.3225806" width="1.03225806" height="1.03225806"></rect>
                        <polygon id="Rectangle" points="4.12903226 12.3870968 5.16129032 12.3870968 5.16129032 22.7096774 4.12903226 22.7096774 4.12903226 29.9354839 3.09677419 29.9354839 3.09677419 26.8387097 2.06451613 26.8387097 2.06451613 21.6774194 3.09677419 21.6774194 3.09677419 15.483871 4.12903226 15.483871"></polygon>
                        <polyline id="Path" points="14.4516129 1.03225806 12.3870968 1.03225806 12.3870968 0 9.29032258 0 9.29032258 2.06451613 8.25806452 2.06451613 8.25806452 3.09677419 8.25806452 4.12903226 10.3225806 4.12903226 10.3225806 1.03225806 11.3548387 1.03225806 11.3548387 2.06451613 14.4516129 2.06451613"></polyline>
                        <polyline id="Path-2" points="0 29.9354839 0 27.8709677 1.03225806 27.8709677 1.03225806 26.8387097 2.06451613 26.8387097 2.06451613 28.9032258 1.03225806 28.9032258 1.03225806 29.9354839"></polyline>
                    </g>
                    <g id="Wizard-Fill-Shadow" transform="translate(-0.000000, 0.000000)" fill="#A68311">
                        <rect id="Rectangle" x="5.16129032" y="10.3225806" width="1.03225806" height="1.03225806"></rect>
                        <rect id="Rectangle" x="6.19354839" y="9.29032258" width="1.03225806" height="1.03225806"></rect>
                        <polygon id="Path-3" points="1.03225806 10.3225806 1.03225806 20.6451613 0 20.6451613 0 21.6774194 2.06451613 21.6774194 2.06451613 20.6451613 3.09677419 20.6451613 3.09677419 10.3225806"></polygon>
                        <polygon id="Path-4" points="8.25806452 23.7419355 8.25806452 24.7741935 7.22580645 24.7741935 7.22580645 28.9032258 8.25806452 28.9032258 8.25806452 29.9354839 10.3225806 29.9354839 10.3225806 28.9032258 11.3548387 28.9032258 11.3548387 27.8709677 10.3225806 27.8709677 10.3225806 23.7419355"></polygon>
                        <polygon id="Path-5" points="8.25806452 3.09677419 10.3225806 3.09677419 10.3225806 2.06451613 11.3548387 2.06451613 11.3548387 0 10.3225806 0 10.3225806 1.03225806 9.29032258 1.03225806 9.29032258 2.06451613 8.25806452 2.06451613"></polygon>
                        <polygon id="Path-6" points="16.516129 23.7419355 16.516129 20.6451613 15.483871 20.6451613 15.483871 14.4516129 16.516129 14.4516129 16.516129 11.3548387 18.5806452 11.3548387 18.5806452 12.3870968 19.6129032 12.3870968 19.6129032 14.4516129 20.6451613 14.4516129 20.6451613 18.5806452 19.6129032 18.5806452 19.6129032 21.6774194 18.5806452 21.6774194 18.5806452 22.7096774 17.5483871 22.7096774 17.5483871 23.7419355"></polygon>
                        <rect id="Rectangle" x="2.06451613" y="28.9032258" width="1.03225806" height="1.03225806"></rect>
                        <rect id="Rectangle" x="5.16129032" y="28.9032258" width="1.03225806" height="1.03225806"></rect>
                        <rect id="Rectangle" x="13.4193548" y="9.29032258" width="1.03225806" height="1.03225806"></rect>
                        <rect id="Rectangle" x="12.3870968" y="10.3225806" width="1.03225806" height="1.03225806"></rect>
                        <rect id="Rectangle" x="11.3548387" y="11.3548387" width="1.03225806" height="1.03225806"></rect>
                        <rect id="Rectangle" x="11.3548387" y="12.3870968" width="1.03225806" height="1.03225806"></rect>
                        <rect id="Rectangle" x="10.3225806" y="13.4193548" width="1.03225806" height="1.03225806"></rect>
                        <rect id="Rectangle" x="10.3225806" y="14.4516129" width="1.03225806" height="1.03225806"></rect>
                        <rect id="Rectangle" x="9.29032258" y="15.483871" width="1.03225806" height="1.03225806"></rect>
                        <rect id="Rectangle" x="9.29032258" y="16.516129" width="1.03225806" height="1.03225806"></rect>
                        <rect id="Rectangle" x="8.25806452" y="22.7096774" width="1.03225806" height="1.03225806"></rect>
                        <rect id="Rectangle" x="12.3870968" y="28.9032258" width="1.03225806" height="1.03225806"></rect>
                        <rect id="Rectangle" x="13.4193548" y="28.9032258" width="1.03225806" height="1.03225806"></rect>
                        <rect id="Rectangle" x="16.516129" y="28.9032258" width="1.03225806" height="1.03225806"></rect>
                        <rect id="Rectangle" x="15.483871" y="27.8709677" width="1.03225806" height="1.03225806"></rect>
                        <rect id="Rectangle" x="3.09677419" y="27.8709677" width="1.03225806" height="1.03225806"></rect>
                        <rect id="Rectangle" x="2.06451613" y="28.9032258" width="1.03225806" height="1.03225806"></rect>
                    </g>
                </g>
                <g id="Outline" fill="#191541">
                    <rect id="Rectangle" x="17.5483871" y="19.6129032" width="1.03225806" height="1.03225806"></rect>
                    <rect id="Rectangle" x="16.516129" y="19.6129032" width="1.03225806" height="1.03225806"></rect>
                    <rect id="Rectangle" x="16.516129" y="18.5806452" width="1.03225806" height="1.03225806"></rect>
                    <rect id="Rectangle" x="15.483871" y="17.5483871" width="1.03225806" height="1.03225806"></rect>
                    <rect id="Rectangle" x="15.483871" y="16.516129" width="1.03225806" height="1.03225806"></rect>
                    <rect id="Rectangle" x="15.483871" y="15.483871" width="1.03225806" height="1.03225806"></rect>
                    <rect id="Rectangle" x="15.483871" y="14.4516129" width="1.03225806" height="1.03225806"></rect>
                    <rect id="Rectangle" x="19.6129032" y="25.8064516" width="1.03225806" height="1.03225806"></rect>
                    <rect id="Rectangle" x="19.6129032" y="26.8387097" width="1.03225806" height="1.03225806"></rect>
                    <rect id="Rectangle" x="20.6451613" y="27.8709677" width="1.03225806" height="1.03225806"></rect>
                    <rect id="Rectangle" x="20.6451613" y="28.9032258" width="1.03225806" height="1.03225806"></rect>
                    <rect id="Rectangle" x="21.6774194" y="29.9354839" width="1.03225806" height="1.03225806"></rect>
                    <rect id="Rectangle" x="20.6451613" y="30.9677419" width="1.03225806" height="1.03225806"></rect>
                    <rect id="Rectangle" x="19.6129032" y="30.9677419" width="1.03225806" height="1.03225806"></rect>
                    <rect id="Rectangle" x="19.6129032" y="29.9354839" width="1.03225806" height="1.03225806"></rect>
                    <rect id="Rectangle" x="18.5806452" y="29.9354839" width="1.03225806" height="1.03225806"></rect>
                    <rect id="Rectangle" x="18.5806452" y="28.9032258" width="1.03225806" height="1.03225806"></rect>
                    <rect id="Rectangle" x="17.5483871" y="27.8709677" width="1.03225806" height="1.03225806"></rect>
                    <rect id="Rectangle" x="17.5483871" y="28.9032258" width="1.03225806" height="1.03225806"></rect>
                    <rect id="Rectangle" x="16.516129" y="26.8387097" width="1.03225806" height="1.03225806"></rect>
                    <rect id="Rectangle" x="16.516129" y="25.8064516" width="1.03225806" height="1.03225806"></rect>
                    <rect id="Rectangle" x="18.5806452" y="30.9677419" width="1.03225806" height="1.03225806"></rect>
                    <rect id="Rectangle" x="17.5483871" y="30.9677419" width="1.03225806" height="1.03225806"></rect>
                    <rect id="Rectangle" x="16.516129" y="30.9677419" width="1.03225806" height="1.03225806"></rect>
                    <rect id="Rectangle" x="23.7419355" y="19.6129032" width="1.03225806" height="1.03225806"></rect>
                    <rect id="Rectangle" x="15.483871" y="5.16129032" width="1.03225806" height="1.03225806"></rect>
                    <rect id="Rectangle" x="2.06451613" y="10.3225806" width="1.03225806" height="1.03225806"></rect>
                    <rect id="Rectangle" x="21.6774194" y="21.6774194" width="1.03225806" height="1.03225806"></rect>
                    <rect id="Rectangle" x="21.6774194" y="20.6451613" width="1.03225806" height="1.03225806"></rect>
                    <rect id="Rectangle" x="21.6774194" y="19.6129032" width="1.03225806" height="1.03225806"></rect>
                    <rect id="Rectangle" x="21.6774194" y="18.5806452" width="1.03225806" height="1.03225806"></rect>
                    <rect id="Rectangle" x="22.7096774" y="17.5483871" width="1.03225806" height="1.03225806"></rect>
                    <rect id="Rectangle" x="17.5483871" y="8.25806452" width="1.03225806" height="1.03225806"></rect>
                    <rect id="Rectangle" x="18.5806452" y="9.29032258" width="1.03225806" height="1.03225806"></rect>
                    <rect id="Rectangle" x="19.6129032" y="9.29032258" width="1.03225806" height="1.03225806"></rect>
                    <rect id="Rectangle" x="20.6451613" y="10.3225806" width="1.03225806" height="1.03225806"></rect>
                    <rect id="Rectangle" x="20.6451613" y="11.3548387" width="1.03225806" height="1.03225806"></rect>
                    <rect id="Rectangle" x="21.6774194" y="11.3548387" width="1.03225806" height="1.03225806"></rect>
                    <rect id="Rectangle" x="22.7096774" y="12.3870968" width="1.03225806" height="1.03225806"></rect>
                    <rect id="Rectangle" x="23.7419355" y="13.4193548" width="1.03225806" height="1.03225806"></rect>
                    <rect id="Rectangle" x="23.7419355" y="14.4516129" width="1.03225806" height="1.03225806"></rect>
                    <rect id="Rectangle" x="24.7741935" y="15.483871" width="1.03225806" height="1.03225806"></rect>
                    <rect id="Rectangle" x="24.7741935" y="16.516129" width="1.03225806" height="1.03225806"></rect>
                    <rect id="Rectangle" x="24.7741935" y="17.5483871" width="1.03225806" height="1.03225806"></rect>
                    <rect id="Rectangle" x="24.7741935" y="18.5806452" width="1.03225806" height="1.03225806"></rect>
                    <rect id="Rectangle" x="23.7419355" y="20.6451613" width="1.03225806" height="1.03225806"></rect>
                    <rect id="Rectangle" x="23.7419355" y="21.6774194" width="1.03225806" height="1.03225806"></rect>
                    <rect id="Rectangle" x="22.7096774" y="22.7096774" width="1.03225806" height="1.03225806"></rect>
                    <rect id="Rectangle" x="21.6774194" y="23.7419355" width="1.03225806" height="1.03225806"></rect>
                    <rect id="Rectangle" x="20.6451613" y="24.7741935" width="1.03225806" height="1.03225806"></rect>
                    <rect id="Rectangle" x="19.6129032" y="24.7741935" width="1.03225806" height="1.03225806"></rect>
                    <rect id="Rectangle" x="19.6129032" y="23.7419355" width="1.03225806" height="1.03225806"></rect>
                    <rect id="Rectangle" x="18.5806452" y="22.7096774" width="1.03225806" height="1.03225806"></rect>
                    <rect id="Rectangle" x="18.5806452" y="21.6774194" width="1.03225806" height="1.03225806"></rect>
                    <rect id="Rectangle" x="17.5483871" y="20.6451613" width="1.03225806" height="1.03225806"></rect>
                    <rect id="Rectangle" x="9.29032258" y="4.12903226" width="1.03225806" height="1.03225806"></rect>
                    <rect id="Rectangle" x="10.3225806" y="4.12903226" width="1.03225806" height="1.03225806"></rect>
                    <rect id="Rectangle" x="11.3548387" y="4.12903226" width="1.03225806" height="1.03225806"></rect>
                    <rect id="Rectangle" x="11.3548387" y="3.09677419" width="1.03225806" height="1.03225806"></rect>
                    <rect id="Rectangle" x="12.3870968" y="2.06451613" width="1.03225806" height="1.03225806"></rect>
                    <rect id="Rectangle" x="13.4193548" y="1.03225806" width="1.03225806" height="1.03225806"></rect>
                    <rect id="Rectangle" x="14.4516129" y="0" width="1.03225806" height="1.03225806"></rect>
                    <rect id="Rectangle" x="15.483871" y="0" width="1.03225806" height="1.03225806"></rect>
                    <rect id="Rectangle" x="16.516129" y="0" width="1.03225806" height="1.03225806"></rect>
                    <rect id="Rectangle" x="17.5483871" y="0" width="1.03225806" height="1.03225806"></rect>
                    <rect id="Rectangle" x="18.5806452" y="1.03225806" width="1.03225806" height="1.03225806"></rect>
                    <rect id="Rectangle" x="19.6129032" y="1.03225806" width="1.03225806" height="1.03225806"></rect>
                    <rect id="Rectangle" x="20.6451613" y="2.06451613" width="1.03225806" height="1.03225806"></rect>
                    <rect id="Rectangle" x="19.6129032" y="3.09677419" width="1.03225806" height="1.03225806"></rect>
                    <rect id="Rectangle" x="18.5806452" y="3.09677419" width="1.03225806" height="1.03225806"></rect>
                    <rect id="Rectangle" x="17.5483871" y="3.09677419" width="1.03225806" height="1.03225806"></rect>
                    <rect id="Rectangle" x="16.516129" y="3.09677419" width="1.03225806" height="1.03225806"></rect>
                    <rect id="Rectangle" x="16.516129" y="4.12903226" width="1.03225806" height="1.03225806"></rect>
                    <rect id="Rectangle" x="16.516129" y="2.06451613" width="1.03225806" height="1.03225806"></rect>
                    <rect id="Rectangle" x="12.3870968" y="4.12903226" width="1.03225806" height="1.03225806"></rect>
                    <rect id="Rectangle" x="13.4193548" y="4.12903226" width="1.03225806" height="1.03225806"></rect>
                    <rect id="Rectangle" x="13.4193548" y="4.12903226" width="1.03225806" height="1.03225806"></rect>
                    <rect id="Rectangle" x="14.4516129" y="5.16129032" width="1.03225806" height="1.03225806"></rect>
                    <rect id="Rectangle" x="16.516129" y="5.16129032" width="1.03225806" height="1.03225806"></rect>
                    <rect id="Rectangle" x="17.5483871" y="6.19354839" width="1.03225806" height="1.03225806"></rect>
                    <rect id="Rectangle" x="18.5806452" y="6.19354839" width="1.03225806" height="1.03225806"></rect>
                    <rect id="Rectangle" x="19.6129032" y="7.22580645" width="1.03225806" height="1.03225806"></rect>
                    <rect id="Rectangle" x="18.5806452" y="8.25806452" width="1.03225806" height="1.03225806"></rect>
                    <rect id="Rectangle" x="1.03225806" y="7.22580645" width="1.03225806" height="1.03225806"></rect>
                    <rect id="Rectangle" x="4.12903226" y="26.8387097" width="1.03225806" height="1.03225806"></rect>
                    <rect id="Rectangle" x="2.06451613" y="27.8709677" width="1.03225806" height="1.03225806"></rect>
                    <rect id="Rectangle" x="3.09677419" y="28.9032258" width="1.03225806" height="1.03225806"></rect>
                    <rect id="Rectangle" x="4.12903226" y="27.8709677" width="1.03225806" height="1.03225806"></rect>
                    <rect id="Rectangle" x="4.12903226" y="25.8064516" width="1.03225806" height="1.03225806"></rect>
                    <rect id="Rectangle" x="4.12903226" y="24.7741935" width="1.03225806" height="1.03225806"></rect>
                    <rect id="Rectangle" x="3.09677419" y="22.7096774" width="1.03225806" height="1.03225806"></rect>
                    <rect id="Rectangle" x="1.03225806" y="22.7096774" width="1.03225806" height="1.03225806"></rect>
                    <rect id="Rectangle" x="3.09677419" y="22.7096774" width="1.03225806" height="1.03225806"></rect>
                    <rect id="Rectangle" x="1.03225806" y="23.7419355" width="1.03225806" height="1.03225806"></rect>
                    <rect id="Rectangle" x="3.09677419" y="23.7419355" width="1.03225806" height="1.03225806"></rect>
                    <rect id="Rectangle" x="3.09677419" y="21.6774194" width="1.03225806" height="1.03225806"></rect>
                    <rect id="Rectangle" x="4.12903226" y="20.6451613" width="1.03225806" height="1.03225806"></rect>
                    <rect id="Rectangle" x="4.12903226" y="19.6129032" width="1.03225806" height="1.03225806"></rect>
                    <rect id="Rectangle" x="4.12903226" y="18.5806452" width="1.03225806" height="1.03225806"></rect>
                    <rect id="Rectangle" x="3.09677419" y="20.6451613" width="1.03225806" height="1.03225806"></rect>
                    <rect id="Rectangle" x="3.09677419" y="19.6129032" width="1.03225806" height="1.03225806"></rect>
                    <rect id="Rectangle" x="3.09677419" y="18.5806452" width="1.03225806" height="1.03225806"></rect>
                    <rect id="Rectangle" x="4.12903226" y="17.5483871" width="1.03225806" height="1.03225806"></rect>
                    <rect id="Rectangle" x="4.12903226" y="16.516129" width="1.03225806" height="1.03225806"></rect>
                    <rect id="Rectangle" x="4.12903226" y="15.483871" width="1.03225806" height="1.03225806"></rect>
                    <rect id="Rectangle" x="4.12903226" y="11.3548387" width="1.03225806" height="1.03225806"></rect>
                    <rect id="Rectangle" x="4.12903226" y="8.25806452" width="1.03225806" height="1.03225806"></rect>
                    <rect id="Rectangle" x="3.09677419" y="7.22580645" width="1.03225806" height="1.03225806"></rect>
                    <rect id="Rectangle" x="3.09677419" y="5.16129032" width="1.03225806" height="1.03225806"></rect>
                    <rect id="Rectangle" x="3.09677419" y="7.22580645" width="1.03225806" height="1.03225806"></rect>
                    <rect id="Rectangle" x="3.09677419" y="6.19354839" width="1.03225806" height="1.03225806"></rect>
                    <rect id="Rectangle" x="5.16129032" y="7.22580645" width="1.03225806" height="1.03225806"></rect>
                    <rect id="Rectangle" x="5.16129032" y="6.19354839" width="1.03225806" height="1.03225806"></rect>
                    <rect id="Rectangle" x="5.16129032" y="5.16129032" width="1.03225806" height="1.03225806"></rect>
                    <rect id="Rectangle" x="4.12903226" y="4.12903226" width="1.03225806" height="1.03225806"></rect>
                    <rect id="Rectangle" x="5.16129032" y="3.09677419" width="1.03225806" height="1.03225806"></rect>
                    <rect id="Rectangle" x="4.12903226" y="2.06451613" width="1.03225806" height="1.03225806"></rect>
                    <rect id="Rectangle" x="3.09677419" y="1.03225806" width="1.03225806" height="1.03225806"></rect>
                    <rect id="Rectangle" x="2.06451613" y="2.06451613" width="1.03225806" height="1.03225806"></rect>
                    <rect id="Rectangle" x="1.03225806" y="3.09677419" width="1.03225806" height="1.03225806"></rect>
                    <rect id="Rectangle" x="0" y="4.12903226" width="1.03225806" height="1.03225806"></rect>
                    <rect id="Rectangle" x="0" y="5.16129032" width="1.03225806" height="1.03225806"></rect>
                    <rect id="Rectangle" x="1.03225806" y="6.19354839" width="1.03225806" height="1.03225806"></rect>
                    <rect id="Rectangle" x="1.03225806" y="7.22580645" width="1.03225806" height="1.03225806"></rect>
                    <rect id="Rectangle" x="1.03225806" y="8.25806452" width="1.03225806" height="1.03225806"></rect>
                    <rect id="Rectangle" x="2.06451613" y="11.3548387" width="1.03225806" height="1.03225806"></rect>
                    <rect id="Rectangle" x="4.12903226" y="9.29032258" width="1.03225806" height="1.03225806"></rect>
                    <rect id="Rectangle" x="2.06451613" y="9.29032258" width="1.03225806" height="1.03225806"></rect>
                    <rect id="Rectangle" x="4.12903226" y="10.3225806" width="1.03225806" height="1.03225806"></rect>
                    <rect id="Rectangle" x="5.16129032" y="10.3225806" width="1.03225806" height="1.03225806"></rect>
                    <rect id="Rectangle" x="6.19354839" y="10.3225806" width="1.03225806" height="1.03225806"></rect>
                    <rect id="Rectangle" x="7.22580645" y="11.3548387" width="1.03225806" height="1.03225806"></rect>
                    <rect id="Rectangle" x="8.25806452" y="11.3548387" width="1.03225806" height="1.03225806"></rect>
                    <rect id="Rectangle" x="9.29032258" y="12.3870968" width="1.03225806" height="1.03225806"></rect>
                    <rect id="Rectangle" x="10.3225806" y="12.3870968" width="1.03225806" height="1.03225806"></rect>
                    <rect id="Rectangle" x="9.29032258" y="13.4193548" width="1.03225806" height="1.03225806"></rect>
                    <rect id="Rectangle" x="9.29032258" y="14.4516129" width="1.03225806" height="1.03225806"></rect>
                    <rect id="Rectangle" x="9.29032258" y="15.483871" width="1.03225806" height="1.03225806"></rect>
                    <rect id="Rectangle" x="8.25806452" y="16.516129" width="1.03225806" height="1.03225806"></rect>
                    <rect id="Rectangle" x="8.25806452" y="17.5483871" width="1.03225806" height="1.03225806"></rect>
                    <rect id="Rectangle" x="8.25806452" y="18.5806452" width="1.03225806" height="1.03225806"></rect>
                    <rect id="Rectangle" x="8.25806452" y="19.6129032" width="1.03225806" height="1.03225806"></rect>
                    <rect id="Rectangle" x="8.25806452" y="20.6451613" width="1.03225806" height="1.03225806"></rect>
                    <rect id="Rectangle" x="8.25806452" y="21.6774194" width="1.03225806" height="1.03225806"></rect>
                    <rect id="Rectangle" x="7.22580645" y="22.7096774" width="1.03225806" height="1.03225806"></rect>
                    <rect id="Rectangle" x="6.19354839" y="21.6774194" width="1.03225806" height="1.03225806"></rect>
                    <rect id="Rectangle" x="5.16129032" y="22.7096774" width="1.03225806" height="1.03225806"></rect>
                    <rect id="Rectangle" x="4.12903226" y="22.7096774" width="1.03225806" height="1.03225806"></rect>
                    <rect id="Rectangle" x="7.22580645" y="23.7419355" width="1.03225806" height="1.03225806"></rect>
                    <rect id="Rectangle" x="7.22580645" y="24.7741935" width="1.03225806" height="1.03225806"></rect>
                    <rect id="Rectangle" x="7.22580645" y="25.8064516" width="1.03225806" height="1.03225806"></rect>
                    <rect id="Rectangle" x="7.22580645" y="26.8387097" width="1.03225806" height="1.03225806"></rect>
                    <rect id="Rectangle" x="6.19354839" y="27.8709677" width="1.03225806" height="1.03225806"></rect>
                    <rect id="Rectangle" x="5.16129032" y="28.9032258" width="1.03225806" height="1.03225806"></rect>
                    <rect id="Rectangle" x="5.16129032" y="29.9354839" width="1.03225806" height="1.03225806"></rect>
                    <rect id="Rectangle" x="6.19354839" y="30.9677419" width="1.03225806" height="1.03225806"></rect>
                    <rect id="Rectangle" x="7.22580645" y="30.9677419" width="1.03225806" height="1.03225806"></rect>
                    <rect id="Rectangle" x="7.22580645" y="29.9354839" width="1.03225806" height="1.03225806"></rect>
                    <rect id="Rectangle" x="8.25806452" y="29.9354839" width="1.03225806" height="1.03225806"></rect>
                    <rect id="Rectangle" x="8.25806452" y="28.9032258" width="1.03225806" height="1.03225806"></rect>
                    <rect id="Rectangle" x="8.25806452" y="27.8709677" width="1.03225806" height="1.03225806"></rect>
                    <rect id="Rectangle" x="8.25806452" y="30.9677419" width="1.03225806" height="1.03225806"></rect>
                    <rect id="Rectangle" x="9.29032258" y="30.9677419" width="1.03225806" height="1.03225806"></rect>
                    <rect id="Rectangle" x="10.3225806" y="29.9354839" width="1.03225806" height="1.03225806"></rect>
                    <rect id="Rectangle" x="10.3225806" y="29.9354839" width="1.03225806" height="1.03225806"></rect>
                    <rect id="Rectangle" x="11.3548387" y="29.9354839" width="1.03225806" height="1.03225806"></rect>
                    <rect id="Rectangle" x="12.3870968" y="30.9677419" width="1.03225806" height="1.03225806"></rect>
                    <rect id="Rectangle" x="13.4193548" y="30.9677419" width="1.03225806" height="1.03225806"></rect>
                    <rect id="Rectangle" x="14.4516129" y="29.9354839" width="1.03225806" height="1.03225806"></rect>
                    <rect id="Rectangle" x="15.483871" y="29.9354839" width="1.03225806" height="1.03225806"></rect>
                    <rect id="Rectangle" x="15.483871" y="28.9032258" width="1.03225806" height="1.03225806"></rect>
                    <rect id="Rectangle" x="14.4516129" y="27.8709677" width="1.03225806" height="1.03225806"></rect>
                    <rect id="Rectangle" x="14.4516129" y="26.8387097" width="1.03225806" height="1.03225806"></rect>
                    <rect id="Rectangle" x="14.4516129" y="25.8064516" width="1.03225806" height="1.03225806"></rect>
                    <rect id="Rectangle" x="14.4516129" y="24.7741935" width="1.03225806" height="1.03225806"></rect>
                    <rect id="Rectangle" x="13.4193548" y="23.7419355" width="1.03225806" height="1.03225806"></rect>
                    <rect id="Rectangle" x="13.4193548" y="22.7096774" width="1.03225806" height="1.03225806"></rect>
                    <rect id="Rectangle" x="13.4193548" y="21.6774194" width="1.03225806" height="1.03225806"></rect>
                    <rect id="Rectangle" x="13.4193548" y="20.6451613" width="1.03225806" height="1.03225806"></rect>
                    <rect id="Rectangle" x="13.4193548" y="19.6129032" width="1.03225806" height="1.03225806"></rect>
                    <rect id="Rectangle" x="13.4193548" y="18.5806452" width="1.03225806" height="1.03225806"></rect>
                    <rect id="Rectangle" x="10.3225806" y="28.9032258" width="1.03225806" height="1.03225806"></rect>
                    <rect id="Rectangle" x="10.3225806" y="27.8709677" width="1.03225806" height="1.03225806"></rect>
                    <rect id="Rectangle" x="10.3225806" y="26.8387097" width="1.03225806" height="1.03225806"></rect>
                    <rect id="Rectangle" x="10.3225806" y="25.8064516" width="1.03225806" height="1.03225806"></rect>
                    <rect id="Rectangle" x="10.3225806" y="24.7741935" width="1.03225806" height="1.03225806"></rect>
                    <rect id="Rectangle" x="10.3225806" y="23.7419355" width="1.03225806" height="1.03225806"></rect>
                    <rect id="Rectangle" x="11.3548387" y="22.7096774" width="1.03225806" height="1.03225806"></rect>
                    <rect id="Rectangle" x="11.3548387" y="21.6774194" width="1.03225806" height="1.03225806"></rect>
                    <rect id="Rectangle" x="9.29032258" y="10.3225806" width="1.03225806" height="1.03225806"></rect>
                    <rect id="Rectangle" x="9.29032258" y="9.29032258" width="1.03225806" height="1.03225806"></rect>
                    <rect id="Rectangle" x="9.29032258" y="8.25806452" width="1.03225806" height="1.03225806"></rect>
                    <rect id="Rectangle" x="10.3225806" y="7.22580645" width="1.03225806" height="1.03225806"></rect>
                    <rect id="Rectangle" x="10.3225806" y="6.19354839" width="1.03225806" height="1.03225806"></rect>
                    <rect id="Rectangle" x="9.29032258" y="6.19354839" width="1.03225806" height="1.03225806"></rect>
                    <rect id="Rectangle" x="8.25806452" y="6.19354839" width="1.03225806" height="1.03225806"></rect>
                    <rect id="Rectangle" x="7.22580645" y="5.16129032" width="1.03225806" height="1.03225806"></rect>
                    <rect id="Rectangle" x="8.25806452" y="4.12903226" width="1.03225806" height="1.03225806"></rect>
                    <rect id="Rectangle" x="2.06451613" y="12.3870968" width="1.03225806" height="1.03225806"></rect>
                    <rect id="Rectangle" x="1.03225806" y="13.4193548" width="1.03225806" height="1.03225806"></rect>
                    <rect id="Rectangle" x="1.03225806" y="14.4516129" width="1.03225806" height="1.03225806"></rect>
                    <rect id="Rectangle" x="2.06451613" y="15.483871" width="1.03225806" height="1.03225806"></rect>
                    <rect id="Rectangle" x="2.06451613" y="16.516129" width="1.03225806" height="1.03225806"></rect>
                    <rect id="Rectangle" x="2.06451613" y="17.5483871" width="1.03225806" height="1.03225806"></rect>
                    <rect id="Rectangle" x="1.03225806" y="18.5806452" width="1.03225806" height="1.03225806"></rect>
                    <rect id="Rectangle" x="1.03225806" y="19.6129032" width="1.03225806" height="1.03225806"></rect>
                    <rect id="Rectangle" x="1.03225806" y="20.6451613" width="1.03225806" height="1.03225806"></rect>
                    <rect id="Rectangle" x="1.03225806" y="21.6774194" width="1.03225806" height="1.03225806"></rect>
                    <rect id="Rectangle" x="1.03225806" y="22.7096774" width="1.03225806" height="1.03225806"></rect>
                    <rect id="Rectangle" x="1.03225806" y="22.7096774" width="1.03225806" height="1.03225806"></rect>
                    <rect id="Rectangle" x="2.06451613" y="24.7741935" width="1.03225806" height="1.03225806"></rect>
                    <rect id="Rectangle" x="2.06451613" y="25.8064516" width="1.03225806" height="1.03225806"></rect>
                    <rect id="Rectangle" x="2.06451613" y="26.8387097" width="1.03225806" height="1.03225806"></rect>
                </g>
                <g id="Light-Skin" transform="translate(2.064516, 7.225806)" fill="#AD8E62">
                    <rect id="Rectangle" x="1.03225806" y="5.16129032" width="1.03225806" height="1.03225806"></rect>
                    <rect id="Rectangle" x="2.06451613" y="5.16129032" width="1.03225806" height="1.03225806"></rect>
                    <rect id="Rectangle" x="0" y="6.19354839" width="1.03225806" height="1.03225806"></rect>
                    <rect id="Rectangle" x="1.03225806" y="6.19354839" width="1.03225806" height="1.03225806"></rect>
                    <rect id="Rectangle" x="0" y="7.22580645" width="1.03225806" height="1.03225806"></rect>
                    <rect id="Rectangle" x="20.6451613" y="8.25806452" width="1.03225806" height="1.03225806"></rect>
                    <rect id="Rectangle" x="10.3225806" y="2.06451613" width="1.03225806" height="1.03225806"></rect>
                    <rect id="Rectangle" x="10.3225806" y="1.03225806" width="1.03225806" height="1.03225806"></rect>
                    <rect id="Rectangle" x="10.3225806" y="0" width="1.03225806" height="1.03225806"></rect>
                    <rect id="Rectangle" x="11.3548387" y="0" width="1.03225806" height="1.03225806"></rect>
                    <rect id="Rectangle" x="21.6774194" y="8.25806452" width="1.03225806" height="1.03225806"></rect>
                    <rect id="Rectangle" x="21.6774194" y="9.29032258" width="1.03225806" height="1.03225806"></rect>
                </g>
                <g id="Dark-Skin" transform="translate(3.096774, 7.225806)" fill="#936846">
                    <rect id="Rectangle" x="0" y="7.22580645" width="1.03225806" height="1.03225806"></rect>
                    <rect id="Rectangle" x="1.03225806" y="7.22580645" width="1.03225806" height="1.03225806"></rect>
                    <rect id="Rectangle" x="1.03225806" y="6.19354839" width="1.03225806" height="1.03225806"></rect>
                    <rect id="Rectangle" x="20.6451613" y="10.3225806" width="1.03225806" height="1.03225806"></rect>
                    <rect id="Rectangle" x="19.6129032" y="9.29032258" width="1.03225806" height="1.03225806"></rect>
                    <rect id="Rectangle" x="8.25806452" y="1.03225806" width="1.03225806" height="1.03225806"></rect>
                    <rect id="Rectangle" x="8.25806452" y="0" width="1.03225806" height="1.03225806"></rect>
                    <rect id="Rectangle" x="11.3548387" y="0" width="1.03225806" height="1.03225806"></rect>
                    <rect id="Rectangle" x="11.3548387" y="1.03225806" width="1.03225806" height="1.03225806"></rect>
                    <rect id="Rectangle" x="10.3225806" y="1.03225806" width="1.03225806" height="1.03225806"></rect>
                    <rect id="Rectangle" x="0" y="7.22580645" width="1.03225806" height="1.03225806"></rect>
                </g>
                <g id="Beard" transform="translate(10.322581, 8.258065)">
                    <polygon fill="#AEAEAE" points="0 0 0 2.06451613 1.03225806 2.06451613 1.03225806 3.09677419 1.03225806 13.4193548 2.06451613 13.4193548 2.06451613 15.483871 3.09677419 15.483871 3.09677419 8.25806452 4.12903226 8.25806452 4.12903226 6.19354839 5.16129032 6.19354839 5.16129032 4.12903226 6.19354839 4.12903226 6.19354839 3.09677419 7.22580645 3.09677419 7.22580645 2.06451613 8.25806452 2.06451613 8.25806452 1.03225806 7.22580645 1.03225806 7.22580645 0 6.19354839 0 5.16129032 0 5.16129032 1.03225806 3.09677419 1.03225806 3.09677419 2.06451613 2.06451613 2.06451613 2.06451613 1.03225806 1.03225806 1.03225806 1.03225806 0"></polygon>
                    <g id="Beard-Highlight" transform="translate(1.032258, 0.000000)" fill="#FFFFFF" opacity="0.503510975">
                        <rect id="Rectangle" x="0" y="1.03225806" width="1.03225806" height="1.03225806"></rect>
                        <rect id="Rectangle" x="0" y="2.06451613" width="1.03225806" height="1.03225806"></rect>
                        <rect id="Rectangle" x="1.03225806" y="2.06451613" width="1.03225806" height="1.03225806"></rect>
                        <rect id="Rectangle" x="2.06451613" y="1.03225806" width="1.03225806" height="1.03225806"></rect>
                        <rect id="Rectangle" x="2.06451613" y="2.06451613" width="1.03225806" height="1.03225806"></rect>
                        <rect id="Rectangle" x="3.09677419" y="1.03225806" width="1.03225806" height="1.03225806"></rect>
                        <rect id="Rectangle" x="4.12903226" y="0" width="1.03225806" height="1.03225806"></rect>
                        <rect id="Rectangle" x="1.03225806" y="3.09677419" width="1.03225806" height="1.03225806"></rect>
                        <rect id="Rectangle" x="0" y="3.09677419" width="1.03225806" height="1.03225806"></rect>
                        <rect id="Rectangle" x="1.03225806" y="4.12903226" width="1.03225806" height="1.03225806"></rect>
                        <rect id="Rectangle" x="0" y="4.12903226" width="1.03225806" height="1.03225806"></rect>
                        <rect id="Rectangle" x="0" y="5.16129032" width="1.03225806" height="1.03225806"></rect>
                        <rect id="Rectangle" x="1.03225806" y="5.16129032" width="1.03225806" height="1.03225806"></rect>
                        <rect id="Rectangle" x="1.03225806" y="6.19354839" width="1.03225806" height="1.03225806"></rect>
                        <rect id="Rectangle" x="0" y="6.19354839" width="1.03225806" height="1.03225806"></rect>
                        <rect id="Rectangle" x="0" y="7.22580645" width="1.03225806" height="1.03225806"></rect>
                        <rect id="Rectangle" x="1.03225806" y="7.22580645" width="1.03225806" height="1.03225806"></rect>
                        <rect id="Rectangle" x="0" y="8.25806452" width="1.03225806" height="1.03225806"></rect>
                        <rect id="Rectangle" x="0" y="9.29032258" width="1.03225806" height="1.03225806"></rect>
                        <rect id="Rectangle" x="0" y="10.3225806" width="1.03225806" height="1.03225806"></rect>
                        <rect id="Rectangle" x="0" y="11.3548387" width="1.03225806" height="1.03225806"></rect>
                        <rect id="Rectangle" x="0" y="11.3548387" width="1.03225806" height="1.03225806"></rect>
                    </g>
                </g>
            </g>
        </g>
    </g>
</svg>